<svg width="25" height="21" viewBox="0 0 25 21" fill="none" xmlns="http://www.w3.org/2000/svg">
<mask id="path-1-outside-1_4_80" maskUnits="userSpaceOnUse" x="-0.5" y="-0.499954" width="25" height="22" fill="black">
<rect fill="white" x="-0.5" y="-0.499954" width="25" height="22"/>
<path d="M16.5902 0.500976C18.0474 0.537893 19.2172 1.73144 19.2172 3.19846V5.14647L17.1552 3.96932V3.19846C17.1552 2.8478 16.8711 2.56354 16.5207 2.56354H3.19655C2.84614 2.56354 2.56207 2.8478 2.56207 3.19846V13.2738C2.76556 13.2247 2.97799 13.1985 3.19655 13.1985H8.27241C8.49097 13.1985 8.70341 13.2247 8.9069 13.2738V11.135C8.9069 9.64467 10.1142 8.43655 11.6034 8.43655H16.5207C16.711 8.43655 16.8967 8.45638 17.0759 8.49391V5.67738L23.5 9.38894L17.0759 13.1005V10.8274C16.9676 10.6322 16.7596 10.5 16.5207 10.5H11.6034C11.253 10.5 10.969 10.7843 10.969 11.135V17.8016C10.969 18.0203 10.9428 18.2329 10.8937 18.4366H10.8963L10.8551 18.5826L10.855 18.5793C10.5213 19.6905 9.49147 20.5 8.27241 20.5H3.19655L3.127 20.4991C3.11909 20.4989 3.11119 20.4985 3.1033 20.4982C3.0423 20.4961 2.98182 20.4922 2.92191 20.4861C2.9085 20.4847 2.89514 20.4832 2.88179 20.4816C2.87368 20.4807 2.86556 20.4798 2.85747 20.4788C2.84976 20.4778 2.84208 20.4767 2.83439 20.4757C2.79754 20.4708 2.76093 20.4651 2.72456 20.4587C2.71281 20.4566 2.7011 20.4544 2.6894 20.4521C2.67802 20.45 2.66665 20.4478 2.65532 20.4455C2.65031 20.4445 2.6453 20.4434 2.64029 20.4424C2.62299 20.4388 2.60574 20.435 2.58856 20.4311C2.58586 20.4304 2.5832 20.4297 2.5805 20.4291C2.56232 20.4248 2.54417 20.4205 2.52613 20.4159C2.5179 20.4138 2.5097 20.4115 2.5015 20.4094C2.48888 20.406 2.47626 20.4027 2.46371 20.3991C2.45365 20.3963 2.44366 20.3932 2.43365 20.3903C2.42211 20.3869 2.41059 20.3835 2.39911 20.3799C2.39254 20.3779 2.38599 20.3758 2.37944 20.3737C2.36462 20.369 2.34984 20.3643 2.33514 20.3593C2.32067 20.3544 2.30627 20.3494 2.29192 20.3443C2.28773 20.3428 2.28355 20.3413 2.27937 20.3398C2.26558 20.3348 2.25185 20.3296 2.23817 20.3244C2.2312 20.3218 2.22419 20.3192 2.21725 20.3165C2.2046 20.3116 2.19202 20.3064 2.17946 20.3013C2.17154 20.2981 2.16364 20.2949 2.15576 20.2916C2.14414 20.2867 2.13259 20.2817 2.12106 20.2767C2.11247 20.2729 2.10389 20.2692 2.09535 20.2654C2.08762 20.2619 2.07995 20.2584 2.07227 20.2548C2.05836 20.2484 2.04453 20.2419 2.03075 20.2353C2.02128 20.2307 2.01182 20.2262 2.0024 20.2215C1.99568 20.2182 1.98896 20.2148 1.98227 20.2114C1.96806 20.2042 1.95389 20.197 1.93982 20.1896C1.93433 20.1867 1.92888 20.1837 1.9234 20.1807C1.91132 20.1742 1.89928 20.1677 1.88731 20.161C1.88022 20.1571 1.87314 20.1531 1.86609 20.1491C1.85331 20.1418 1.84063 20.1344 1.82798 20.1269C1.82286 20.1239 1.81775 20.1209 1.81265 20.1178C1.77962 20.098 1.747 20.0776 1.7149 20.0564C1.71158 20.0542 1.70831 20.0519 1.70499 20.0497C1.69189 20.041 1.67889 20.0322 1.66595 20.0232C1.65991 20.0191 1.65384 20.0149 1.64783 20.0107C1.63956 20.0049 1.6314 19.9989 1.6232 19.993C1.61285 19.9855 1.60247 19.9781 1.59222 19.9705C1.58366 19.9642 1.57515 19.9578 1.56666 19.9513C1.55919 19.9456 1.55177 19.9399 1.54436 19.9341C1.53375 19.9259 1.52323 19.9175 1.51276 19.9091C1.50759 19.905 1.5024 19.9009 1.49727 19.8967C1.48457 19.8864 1.47197 19.876 1.45947 19.8654C1.45454 19.8613 1.44965 19.8571 1.44475 19.8529C1.43546 19.8449 1.42621 19.8369 1.41703 19.8289C1.40977 19.8225 1.40252 19.8161 1.39534 19.8096C1.38677 19.8019 1.37825 19.7942 1.36978 19.7864C1.36151 19.7788 1.35333 19.771 1.34515 19.7633C1.33971 19.7581 1.33429 19.753 1.32889 19.7478C1.31701 19.7364 1.30523 19.7248 1.29357 19.7132C1.28847 19.7081 1.28344 19.703 1.27839 19.6979C1.27012 19.6895 1.26191 19.6811 1.25376 19.6726C1.24672 19.6653 1.23965 19.658 1.23269 19.6506C1.22656 19.6441 1.22048 19.6375 1.21441 19.6309C1.20537 19.6211 1.19636 19.6112 1.18746 19.6013C1.18199 19.5952 1.17661 19.589 1.17119 19.5829C1.16322 19.5738 1.15519 19.5648 1.14734 19.5556C1.14162 19.5489 1.13595 19.5422 1.1303 19.5354C1.12127 19.5247 1.11237 19.5138 1.1035 19.5029C1.09921 19.4976 1.09505 19.4922 1.0908 19.4869C1.08219 19.4761 1.07354 19.4654 1.06509 19.4545C1.06007 19.448 1.05517 19.4415 1.05022 19.435C1.04278 19.4252 1.03537 19.4154 1.02806 19.4055C1.02011 19.3948 1.01216 19.384 1.00436 19.3731C1.00089 19.3683 0.997429 19.3634 0.993986 19.3586C0.985309 19.3463 0.976748 19.3339 0.968272 19.3215C0.963911 19.3151 0.959567 19.3087 0.95526 19.3023C0.949161 19.2932 0.943127 19.284 0.937136 19.2748C0.930357 19.2645 0.923638 19.254 0.916999 19.2435C0.913075 19.2373 0.909101 19.2312 0.905226 19.2249C0.897469 19.2125 0.889859 19.1999 0.882301 19.1873C0.878968 19.1817 0.875681 19.1761 0.872387 19.1705C0.865537 19.1589 0.858775 19.1472 0.852095 19.1355C0.847232 19.127 0.84246 19.1184 0.837689 19.1098C0.82075 19.0792 0.804205 19.0485 0.788429 19.0172C0.783838 19.0081 0.779444 18.9989 0.774953 18.9898C0.77135 18.9824 0.767648 18.9752 0.76411 18.9678C0.758146 18.9553 0.752384 18.9428 0.746606 18.9303C0.742166 18.9206 0.737768 18.911 0.733439 18.9013C0.731232 18.8963 0.729111 18.8914 0.726933 18.8864C0.703043 18.832 0.680816 18.7767 0.66048 18.7205C0.648638 18.6878 0.637465 18.6548 0.626866 18.6215C0.624468 18.6139 0.622073 18.6064 0.61974 18.5988C0.616513 18.5884 0.613394 18.5779 0.610291 18.5674C0.600899 18.5356 0.591887 18.5036 0.583648 18.4713C0.579016 18.4531 0.574743 18.4349 0.570481 18.4166C0.569037 18.4104 0.567544 18.4042 0.566144 18.398C0.558947 18.366 0.55237 18.3339 0.546316 18.3015C0.515988 18.1395 0.5 17.9724 0.5 17.8016V3.19846C0.5 1.73144 1.66988 0.537893 3.127 0.500976L3.19655 0.500046H16.5207L16.5902 0.500976Z"/>
<path d="M10.969 19.1207H10.8897C10.9335 19.1207 10.969 19.0852 10.969 19.0414V19.1207Z"/>
</mask>
<path d="M16.5902 0.500976C18.0474 0.537893 19.2172 1.73144 19.2172 3.19846V5.14647L17.1552 3.96932V3.19846C17.1552 2.8478 16.8711 2.56354 16.5207 2.56354H3.19655C2.84614 2.56354 2.56207 2.8478 2.56207 3.19846V13.2738C2.76556 13.2247 2.97799 13.1985 3.19655 13.1985H8.27241C8.49097 13.1985 8.70341 13.2247 8.9069 13.2738V11.135C8.9069 9.64467 10.1142 8.43655 11.6034 8.43655H16.5207C16.711 8.43655 16.8967 8.45638 17.0759 8.49391V5.67738L23.5 9.38894L17.0759 13.1005V10.8274C16.9676 10.6322 16.7596 10.5 16.5207 10.5H11.6034C11.253 10.5 10.969 10.7843 10.969 11.135V17.8016C10.969 18.0203 10.9428 18.2329 10.8937 18.4366H10.8963L10.8551 18.5826L10.855 18.5793C10.5213 19.6905 9.49147 20.5 8.27241 20.5H3.19655L3.127 20.4991C3.11909 20.4989 3.11119 20.4985 3.1033 20.4982C3.0423 20.4961 2.98182 20.4922 2.92191 20.4861C2.9085 20.4847 2.89514 20.4832 2.88179 20.4816C2.87368 20.4807 2.86556 20.4798 2.85747 20.4788C2.84976 20.4778 2.84208 20.4767 2.83439 20.4757C2.79754 20.4708 2.76093 20.4651 2.72456 20.4587C2.71281 20.4566 2.7011 20.4544 2.6894 20.4521C2.67802 20.45 2.66665 20.4478 2.65532 20.4455C2.65031 20.4445 2.6453 20.4434 2.64029 20.4424C2.62299 20.4388 2.60574 20.435 2.58856 20.4311C2.58586 20.4304 2.5832 20.4297 2.5805 20.4291C2.56232 20.4248 2.54417 20.4205 2.52613 20.4159C2.5179 20.4138 2.5097 20.4115 2.5015 20.4094C2.48888 20.406 2.47626 20.4027 2.46371 20.3991C2.45365 20.3963 2.44366 20.3932 2.43365 20.3903C2.42211 20.3869 2.41059 20.3835 2.39911 20.3799C2.39254 20.3779 2.38599 20.3758 2.37944 20.3737C2.36462 20.369 2.34984 20.3643 2.33514 20.3593C2.32067 20.3544 2.30627 20.3494 2.29192 20.3443C2.28773 20.3428 2.28355 20.3413 2.27937 20.3398C2.26558 20.3348 2.25185 20.3296 2.23817 20.3244C2.2312 20.3218 2.22419 20.3192 2.21725 20.3165C2.2046 20.3116 2.19202 20.3064 2.17946 20.3013C2.17154 20.2981 2.16364 20.2949 2.15576 20.2916C2.14414 20.2867 2.13259 20.2817 2.12106 20.2767C2.11247 20.2729 2.10389 20.2692 2.09535 20.2654C2.08762 20.2619 2.07995 20.2584 2.07227 20.2548C2.05836 20.2484 2.04453 20.2419 2.03075 20.2353C2.02128 20.2307 2.01182 20.2262 2.0024 20.2215C1.99568 20.2182 1.98896 20.2148 1.98227 20.2114C1.96806 20.2042 1.95389 20.197 1.93982 20.1896C1.93433 20.1867 1.92888 20.1837 1.9234 20.1807C1.91132 20.1742 1.89928 20.1677 1.88731 20.161C1.88022 20.1571 1.87314 20.1531 1.86609 20.1491C1.85331 20.1418 1.84063 20.1344 1.82798 20.1269C1.82286 20.1239 1.81775 20.1209 1.81265 20.1178C1.77962 20.098 1.747 20.0776 1.7149 20.0564C1.71158 20.0542 1.70831 20.0519 1.70499 20.0497C1.69189 20.041 1.67889 20.0322 1.66595 20.0232C1.65991 20.0191 1.65384 20.0149 1.64783 20.0107C1.63956 20.0049 1.6314 19.9989 1.6232 19.993C1.61285 19.9855 1.60247 19.9781 1.59222 19.9705C1.58366 19.9642 1.57515 19.9578 1.56666 19.9513C1.55919 19.9456 1.55177 19.9399 1.54436 19.9341C1.53375 19.9259 1.52323 19.9175 1.51276 19.9091C1.50759 19.905 1.5024 19.9009 1.49727 19.8967C1.48457 19.8864 1.47197 19.876 1.45947 19.8654C1.45454 19.8613 1.44965 19.8571 1.44475 19.8529C1.43546 19.8449 1.42621 19.8369 1.41703 19.8289C1.40977 19.8225 1.40252 19.8161 1.39534 19.8096C1.38677 19.8019 1.37825 19.7942 1.36978 19.7864C1.36151 19.7788 1.35333 19.771 1.34515 19.7633C1.33971 19.7581 1.33429 19.753 1.32889 19.7478C1.31701 19.7364 1.30523 19.7248 1.29357 19.7132C1.28847 19.7081 1.28344 19.703 1.27839 19.6979C1.27012 19.6895 1.26191 19.6811 1.25376 19.6726C1.24672 19.6653 1.23965 19.658 1.23269 19.6506C1.22656 19.6441 1.22048 19.6375 1.21441 19.6309C1.20537 19.6211 1.19636 19.6112 1.18746 19.6013C1.18199 19.5952 1.17661 19.589 1.17119 19.5829C1.16322 19.5738 1.15519 19.5648 1.14734 19.5556C1.14162 19.5489 1.13595 19.5422 1.1303 19.5354C1.12127 19.5247 1.11237 19.5138 1.1035 19.5029C1.09921 19.4976 1.09505 19.4922 1.0908 19.4869C1.08219 19.4761 1.07354 19.4654 1.06509 19.4545C1.06007 19.448 1.05517 19.4415 1.05022 19.435C1.04278 19.4252 1.03537 19.4154 1.02806 19.4055C1.02011 19.3948 1.01216 19.384 1.00436 19.3731C1.00089 19.3683 0.997429 19.3634 0.993986 19.3586C0.985309 19.3463 0.976748 19.3339 0.968272 19.3215C0.963911 19.3151 0.959567 19.3087 0.95526 19.3023C0.949161 19.2932 0.943127 19.284 0.937136 19.2748C0.930357 19.2645 0.923638 19.254 0.916999 19.2435C0.913075 19.2373 0.909101 19.2312 0.905226 19.2249C0.897469 19.2125 0.889859 19.1999 0.882301 19.1873C0.878968 19.1817 0.875681 19.1761 0.872387 19.1705C0.865537 19.1589 0.858775 19.1472 0.852095 19.1355C0.847232 19.127 0.84246 19.1184 0.837689 19.1098C0.82075 19.0792 0.804205 19.0485 0.788429 19.0172C0.783838 19.0081 0.779444 18.9989 0.774953 18.9898C0.77135 18.9824 0.767648 18.9752 0.76411 18.9678C0.758146 18.9553 0.752384 18.9428 0.746606 18.9303C0.742166 18.9206 0.737768 18.911 0.733439 18.9013C0.731232 18.8963 0.729111 18.8914 0.726933 18.8864C0.703043 18.832 0.680816 18.7767 0.66048 18.7205C0.648638 18.6878 0.637465 18.6548 0.626866 18.6215C0.624468 18.6139 0.622073 18.6064 0.61974 18.5988C0.616513 18.5884 0.613394 18.5779 0.610291 18.5674C0.600899 18.5356 0.591887 18.5036 0.583648 18.4713C0.579016 18.4531 0.574743 18.4349 0.570481 18.4166C0.569037 18.4104 0.567544 18.4042 0.566144 18.398C0.558947 18.366 0.55237 18.3339 0.546316 18.3015C0.515988 18.1395 0.5 17.9724 0.5 17.8016V3.19846C0.5 1.73144 1.66988 0.537893 3.127 0.500976L3.19655 0.500046H16.5207L16.5902 0.500976Z" fill="url(#paint0_linear_4_80)"/>
<path d="M10.969 19.1207H10.8897C10.9335 19.1207 10.969 19.0852 10.969 19.0414V19.1207Z" fill="url(#paint1_linear_4_80)"/>
<path d="M16.5902 0.500976C18.0474 0.537893 19.2172 1.73144 19.2172 3.19846V5.14647L17.1552 3.96932V3.19846C17.1552 2.8478 16.8711 2.56354 16.5207 2.56354H3.19655C2.84614 2.56354 2.56207 2.8478 2.56207 3.19846V13.2738C2.76556 13.2247 2.97799 13.1985 3.19655 13.1985H8.27241C8.49097 13.1985 8.70341 13.2247 8.9069 13.2738V11.135C8.9069 9.64467 10.1142 8.43655 11.6034 8.43655H16.5207C16.711 8.43655 16.8967 8.45638 17.0759 8.49391V5.67738L23.5 9.38894L17.0759 13.1005V10.8274C16.9676 10.6322 16.7596 10.5 16.5207 10.5H11.6034C11.253 10.5 10.969 10.7843 10.969 11.135V17.8016C10.969 18.0203 10.9428 18.2329 10.8937 18.4366H10.8963L10.8551 18.5826L10.855 18.5793C10.5213 19.6905 9.49147 20.5 8.27241 20.5H3.19655L3.127 20.4991C3.11909 20.4989 3.11119 20.4985 3.1033 20.4982C3.0423 20.4961 2.98182 20.4922 2.92191 20.4861C2.9085 20.4847 2.89514 20.4832 2.88179 20.4816C2.87368 20.4807 2.86556 20.4798 2.85747 20.4788C2.84976 20.4778 2.84208 20.4767 2.83439 20.4757C2.79754 20.4708 2.76093 20.4651 2.72456 20.4587C2.71281 20.4566 2.7011 20.4544 2.6894 20.4521C2.67802 20.45 2.66665 20.4478 2.65532 20.4455C2.65031 20.4445 2.6453 20.4434 2.64029 20.4424C2.62299 20.4388 2.60574 20.435 2.58856 20.4311C2.58586 20.4304 2.5832 20.4297 2.5805 20.4291C2.56232 20.4248 2.54417 20.4205 2.52613 20.4159C2.5179 20.4138 2.5097 20.4115 2.5015 20.4094C2.48888 20.406 2.47626 20.4027 2.46371 20.3991C2.45365 20.3963 2.44366 20.3932 2.43365 20.3903C2.42211 20.3869 2.41059 20.3835 2.39911 20.3799C2.39254 20.3779 2.38599 20.3758 2.37944 20.3737C2.36462 20.369 2.34984 20.3643 2.33514 20.3593C2.32067 20.3544 2.30627 20.3494 2.29192 20.3443C2.28773 20.3428 2.28355 20.3413 2.27937 20.3398C2.26558 20.3348 2.25185 20.3296 2.23817 20.3244C2.2312 20.3218 2.22419 20.3192 2.21725 20.3165C2.2046 20.3116 2.19202 20.3064 2.17946 20.3013C2.17154 20.2981 2.16364 20.2949 2.15576 20.2916C2.14414 20.2867 2.13259 20.2817 2.12106 20.2767C2.11247 20.2729 2.10389 20.2692 2.09535 20.2654C2.08762 20.2619 2.07995 20.2584 2.07227 20.2548C2.05836 20.2484 2.04453 20.2419 2.03075 20.2353C2.02128 20.2307 2.01182 20.2262 2.0024 20.2215C1.99568 20.2182 1.98896 20.2148 1.98227 20.2114C1.96806 20.2042 1.95389 20.197 1.93982 20.1896C1.93433 20.1867 1.92888 20.1837 1.9234 20.1807C1.91132 20.1742 1.89928 20.1677 1.88731 20.161C1.88022 20.1571 1.87314 20.1531 1.86609 20.1491C1.85331 20.1418 1.84063 20.1344 1.82798 20.1269C1.82286 20.1239 1.81775 20.1209 1.81265 20.1178C1.77962 20.098 1.747 20.0776 1.7149 20.0564C1.71158 20.0542 1.70831 20.0519 1.70499 20.0497C1.69189 20.041 1.67889 20.0322 1.66595 20.0232C1.65991 20.0191 1.65384 20.0149 1.64783 20.0107C1.63956 20.0049 1.6314 19.9989 1.6232 19.993C1.61285 19.9855 1.60247 19.9781 1.59222 19.9705C1.58366 19.9642 1.57515 19.9578 1.56666 19.9513C1.55919 19.9456 1.55177 19.9399 1.54436 19.9341C1.53375 19.9259 1.52323 19.9175 1.51276 19.9091C1.50759 19.905 1.5024 19.9009 1.49727 19.8967C1.48457 19.8864 1.47197 19.876 1.45947 19.8654C1.45454 19.8613 1.44965 19.8571 1.44475 19.8529C1.43546 19.8449 1.42621 19.8369 1.41703 19.8289C1.40977 19.8225 1.40252 19.8161 1.39534 19.8096C1.38677 19.8019 1.37825 19.7942 1.36978 19.7864C1.36151 19.7788 1.35333 19.771 1.34515 19.7633C1.33971 19.7581 1.33429 19.753 1.32889 19.7478C1.31701 19.7364 1.30523 19.7248 1.29357 19.7132C1.28847 19.7081 1.28344 19.703 1.27839 19.6979C1.27012 19.6895 1.26191 19.6811 1.25376 19.6726C1.24672 19.6653 1.23965 19.658 1.23269 19.6506C1.22656 19.6441 1.22048 19.6375 1.21441 19.6309C1.20537 19.6211 1.19636 19.6112 1.18746 19.6013C1.18199 19.5952 1.17661 19.589 1.17119 19.5829C1.16322 19.5738 1.15519 19.5648 1.14734 19.5556C1.14162 19.5489 1.13595 19.5422 1.1303 19.5354C1.12127 19.5247 1.11237 19.5138 1.1035 19.5029C1.09921 19.4976 1.09505 19.4922 1.0908 19.4869C1.08219 19.4761 1.07354 19.4654 1.06509 19.4545C1.06007 19.448 1.05517 19.4415 1.05022 19.435C1.04278 19.4252 1.03537 19.4154 1.02806 19.4055C1.02011 19.3948 1.01216 19.384 1.00436 19.3731C1.00089 19.3683 0.997429 19.3634 0.993986 19.3586C0.985309 19.3463 0.976748 19.3339 0.968272 19.3215C0.963911 19.3151 0.959567 19.3087 0.95526 19.3023C0.949161 19.2932 0.943127 19.284 0.937136 19.2748C0.930357 19.2645 0.923638 19.254 0.916999 19.2435C0.913075 19.2373 0.909101 19.2312 0.905226 19.2249C0.897469 19.2125 0.889859 19.1999 0.882301 19.1873C0.878968 19.1817 0.875681 19.1761 0.872387 19.1705C0.865537 19.1589 0.858775 19.1472 0.852095 19.1355C0.847232 19.127 0.84246 19.1184 0.837689 19.1098C0.82075 19.0792 0.804205 19.0485 0.788429 19.0172C0.783838 19.0081 0.779444 18.9989 0.774953 18.9898C0.77135 18.9824 0.767648 18.9752 0.76411 18.9678C0.758146 18.9553 0.752384 18.9428 0.746606 18.9303C0.742166 18.9206 0.737768 18.911 0.733439 18.9013C0.731232 18.8963 0.729111 18.8914 0.726933 18.8864C0.703043 18.832 0.680816 18.7767 0.66048 18.7205C0.648638 18.6878 0.637465 18.6548 0.626866 18.6215C0.624468 18.6139 0.622073 18.6064 0.61974 18.5988C0.616513 18.5884 0.613394 18.5779 0.610291 18.5674C0.600899 18.5356 0.591887 18.5036 0.583648 18.4713C0.579016 18.4531 0.574743 18.4349 0.570481 18.4166C0.569037 18.4104 0.567544 18.4042 0.566144 18.398C0.558947 18.366 0.55237 18.3339 0.546316 18.3015C0.515988 18.1395 0.5 17.9724 0.5 17.8016V3.19846C0.5 1.73144 1.66988 0.537893 3.127 0.500976L3.19655 0.500046H16.5207L16.5902 0.500976Z" stroke="#5E2396" mask="url(#path-1-outside-1_4_80)"/>
<path d="M10.969 19.1207H10.8897C10.9335 19.1207 10.969 19.0852 10.969 19.0414V19.1207Z" stroke="#5E2396" mask="url(#path-1-outside-1_4_80)"/>
<defs>
<linearGradient id="paint0_linear_4_80" x1="2.72069" y1="0.469941" x2="16.2931" y2="15.6194" gradientUnits="userSpaceOnUse">
<stop offset="0.379278" stop-color="#8C5FE2"/>
<stop offset="1" stop-color="#AA5DC3"/>
</linearGradient>
<linearGradient id="paint1_linear_4_80" x1="2.72069" y1="0.469941" x2="16.2931" y2="15.6194" gradientUnits="userSpaceOnUse">
<stop offset="0.379278" stop-color="#8C5FE2"/>
<stop offset="1" stop-color="#AA5DC3"/>
</linearGradient>
</defs>
</svg>
